<?xml version="1.0" standalone="no"?>
<!DOCTYPE svg PUBLIC "-//W3C//DTD SVG 20010904//EN"
 "http://www.w3.org/TR/2001/REC-SVG-20010904/DTD/svg10.dtd">
<svg version="1.0" xmlns="http://www.w3.org/2000/svg"
 width="100.000000pt" height="100.000000pt" viewBox="0 0 200.000000 200.000000"
 preserveAspectRatio="xMidYMid meet">
<metadata>
Created by potrace 1.10, written by Peter Selinger 2001-2011
</metadata>
<g transform="translate(0.000000,200.000000) scale(0.100000,-0.100000)"
fill="#000000" stroke="none">
<path d="M886 1591 c-3 -5 -11 -42 -17 -84 -11 -74 -11 -75 -49 -87 -38 -12
-39 -12 -95 34 -31 25 -61 46 -67 46 -15 0 -158 -141 -158 -156 0 -6 20 -37
45 -67 46 -55 46 -55 33 -95 l-13 -41 -70 -11 c-103 -16 -100 -12 -103 -125
-1 -54 1 -102 6 -107 5 -5 44 -14 87 -21 l78 -12 15 -41 15 -40 -48 -62 -47
-61 21 -29 c27 -39 129 -132 144 -132 7 0 38 21 70 46 l59 46 36 -15 c36 -14
37 -16 49 -91 6 -41 14 -80 18 -86 7 -12 194 -14 212 -2 6 4 18 43 25 87 13
78 14 79 50 93 37 14 37 14 93 -32 31 -25 61 -46 67 -46 17 0 158 142 158 160
0 9 -9 25 -19 34 -11 10 -31 35 -46 56 -25 36 -26 41 -14 74 12 34 15 35 83
46 103 16 101 13 104 121 1 52 -2 100 -6 106 -4 7 -43 18 -85 24 -75 11 -78
13 -92 46 -8 20 -15 39 -15 42 0 4 20 34 45 65 25 32 45 62 45 66 0 11 -151
160 -161 160 -5 0 -36 -21 -69 -46 l-59 -47 -38 16 c-38 15 -38 15 -48 93
l-10 79 -112 3 c-61 1 -114 -1 -117 -7z m201 -96 c9 -46 19 -66 42 -87 56 -50
85 -46 188 28 21 15 24 14 72 -31 28 -26 51 -54 51 -62 0 -8 -16 -41 -36 -73
-33 -54 -35 -61 -25 -93 17 -51 55 -84 104 -92 80 -12 77 -9 77 -85 0 -38 -4
-71 -9 -75 -5 -3 -33 -10 -62 -15 -59 -11 -86 -31 -105 -77 -19 -44 -19 -43
27 -111 l40 -61 -23 -32 c-13 -17 -38 -42 -57 -55 l-34 -23 -46 33 c-64 46
-77 49 -126 27 -49 -22 -60 -38 -70 -102 -4 -25 -10 -52 -15 -59 -10 -17 -98
-25 -132 -11 -23 9 -28 18 -34 63 -11 80 -65 128 -134 118 -8 -1 -36 -17 -61
-36 -26 -19 -50 -34 -55 -34 -16 0 -104 94 -104 111 0 9 8 27 19 40 41 54 51
84 39 123 -16 51 -56 83 -118 91 -59 8 -70 22 -70 93 0 59 9 69 80 82 64 12
78 23 102 77 18 40 18 44 2 75 -9 18 -28 47 -41 65 l-25 32 21 30 c27 38 69
71 90 71 9 0 38 -16 65 -35 57 -40 78 -43 123 -15 37 22 49 41 58 95 14 80 9
76 93 73 l77 -3 12 -60z" fill = "#222222"/>
<path d="M916 1294 c-143 -45 -239 -186 -223 -325 13 -108 82 -203 182 -251
198 -94 427 54 429 277 1 60 -4 80 -32 137 -66 135 -221 205 -356 162z m201
-55 c97 -47 162 -164 150 -271 -12 -98 -86 -190 -180 -225 -45 -16 -127 -16
-177 2 -134 47 -210 201 -165 335 51 155 225 229 372 159z" fill = "#222222"/>
</g>
</svg>
