<?xml version="1.0" standalone="no"?>
<!DOCTYPE svg PUBLIC "-//W3C//DTD SVG 20010904//EN"
 "http://www.w3.org/TR/2001/REC-SVG-20010904/DTD/svg10.dtd">
<svg version="1.0" xmlns="http://www.w3.org/2000/svg"
 width="30.000000pt" height="30.000000pt" viewBox="0 0 200.000000 200.000000"
 preserveAspectRatio="xMidYMid meet">
<metadata>
Created by potrace 1.10, written by Peter Selinger 2001-2011
</metadata>
<g transform="translate(0.000000,200.000000) scale(0.100000,-0.100000)"
fill="#000000" stroke="none">
<path d="M1025 1830 c-1 -3 -5 -21 -9 -41 -6 -32 -12 -39 -51 -53 -44 -17 -45
-17 -77 8 l-33 25 -49 -55 -48 -55 24 -32 25 -32 -19 -42 c-16 -38 -24 -44
-58 -49 l-40 -7 0 -72 0 -72 40 -7 c34 -5 42 -11 58 -49 l19 -42 -25 -34 -25
-33 51 -51 51 -51 32 23 c29 22 34 22 70 11 47 -16 56 -26 61 -65 3 -30 3 -30
75 -33 l73 -3 6 41 c5 33 12 44 33 51 14 5 33 13 42 18 11 7 24 2 45 -15 16
-13 34 -23 39 -24 6 0 32 22 57 49 l46 49 -24 34 c-24 33 -24 35 -8 74 20 49
17 46 60 53 l37 6 1 72 1 73 -42 6 c-37 5 -42 10 -58 50 -17 44 -17 45 8 78
l26 33 -52 51 -52 51 -33 -25 c-32 -25 -32 -26 -77 -9 -39 16 -45 22 -52 57
l-8 40 -68 2 c-38 0 -70 -1 -72 -4z m110 -80 c5 -29 12 -40 24 -40 10 0 38
-11 64 -23 l46 -24 31 20 31 20 24 -23 24 -23 -21 -29 -21 -30 21 -46 c11 -26
23 -54 26 -64 3 -10 20 -19 45 -23 38 -6 40 -9 38 -38 -2 -27 -7 -33 -40 -40
-21 -5 -41 -17 -44 -26 -2 -9 -14 -37 -25 -63 l-21 -46 21 -30 21 -29 -24 -23
-24 -23 -32 20 -31 21 -42 -24 c-22 -13 -51 -24 -63 -24 -18 0 -22 -7 -25 -37
-3 -36 -5 -38 -38 -38 -32 0 -35 3 -40 34 -4 29 -11 35 -53 51 -27 10 -54 24
-62 30 -11 9 -21 7 -46 -10 l-31 -23 -25 26 -25 25 21 28 21 29 -25 49 c-14
27 -25 55 -25 62 0 14 -22 24 -56 24 -21 0 -24 5 -24 35 0 33 2 35 40 41 22 4
40 12 40 19 0 6 11 33 25 60 l24 49 -20 33 c-20 33 -20 35 -4 53 22 25 33 25
64 1 24 -18 25 -18 69 5 25 13 53 24 63 24 12 0 19 11 24 40 6 37 9 40 40 40
31 0 34 -3 40 -40z"/>
<path d="M1025 1591 c-135 -61 -149 -235 -26 -318 120 -81 280 5 281 150 0 80
-40 141 -113 172 -48 20 -93 19 -142 -4z m159 -61 c70 -61 70 -148 1 -209 -29
-25 -44 -31 -83 -31 -109 0 -172 99 -125 197 22 47 66 73 125 73 38 0 54 -6
82 -30z"/>
<path d="M21 1694 c-21 -26 -21 -36 -21 -563 0 -404 3 -540 12 -549 9 -9 9
-15 0 -24 -7 -7 -12 -34 -12 -60 0 -39 5 -54 25 -73 l24 -25 333 0 333 0 -2
-97 -1 -97 -56 3 c-54 2 -56 2 -56 -23 l0 -26 405 0 405 0 0 26 c0 25 -2 25
-57 23 l-57 -3 -1 97 -1 97 331 0 c281 0 334 2 352 15 l22 16 1 624 0 624 -22
20 c-21 20 -34 21 -255 21 -226 0 -233 -1 -233 -20 0 -19 7 -20 224 -20 174 0
226 -3 235 -13 7 -10 11 -176 13 -545 l3 -532 -962 0 -963 0 0 533 c0 401 3
536 12 545 9 9 97 12 335 12 316 0 323 0 323 20 0 20 -7 20 -334 20 l-335 0
-20 -26z m1937 -1191 l-3 -48 -944 -3 c-689 -1 -947 1 -957 9 -8 6 -14 29 -14
50 l0 39 961 0 960 0 -3 -47z m-716 -196 l3 -97 -245 0 -245 0 2 97 c1 54 2
98 3 98 0 0 108 0 239 0 l240 0 3 -98z"/>
<path d="M1633 1293 c4 -21 16 -49 27 -63 34 -42 43 -67 36 -103 -5 -29 -14
-39 -54 -59 -26 -13 -57 -38 -70 -58 -22 -32 -23 -44 -20 -145 2 -91 6 -115
23 -137 23 -32 90 -68 126 -68 41 0 112 42 133 78 24 43 32 153 16 221 -12 52
-55 102 -98 116 -18 5 -19 10 -10 42 12 45 6 71 -32 118 -18 22 -30 50 -30 66
0 25 -4 29 -26 29 -25 0 -26 -2 -21 -37z m117 -268 c46 -24 60 -62 60 -161 0
-85 -1 -87 -34 -120 -27 -27 -42 -34 -74 -34 -81 0 -117 60 -110 185 3 62 7
78 28 100 43 46 82 55 130 30z"/>
<path d="M1680 961 c0 -27 4 -31 26 -31 22 0 25 4 22 28 -2 19 -9 28 -25 30
-20 3 -23 -1 -23 -27z"/>
<path d="M443 890 c-101 -206 -102 -210 -81 -221 18 -10 23 -9 27 2 2 8 49
104 103 213 98 196 104 217 63 215 -5 0 -56 -94 -112 -209z"/>
<path d="M224 946 l-71 -63 69 -63 c65 -59 71 -62 86 -46 16 16 14 20 -37 65
-45 39 -52 50 -39 57 8 5 32 24 52 42 33 29 35 34 24 51 -13 18 -18 15 -84
-43z"/>
<path d="M621 986 c-10 -11 -2 -23 39 -58 l51 -43 -51 -45 c-46 -42 -49 -47
-36 -65 13 -18 17 -16 85 44 40 35 68 67 64 71 -47 44 -128 110 -133 110 -4 0
-13 -6 -19 -14z"/>
</g>
</svg>
