<?xml version="1.0" standalone="no"?>
<!DOCTYPE svg PUBLIC "-//W3C//DTD SVG 20010904//EN"
 "http://www.w3.org/TR/2001/REC-SVG-20010904/DTD/svg10.dtd">
<svg version="1.0" xmlns="http://www.w3.org/2000/svg"
 width="200.000000pt" height="200.000000pt" viewBox="0 0 200.000000 200.000000"
 preserveAspectRatio="xMidYMid meet">
<metadata>
Created by potrace 1.10, written by Peter Selinger 2001-2011
</metadata>
<g transform="translate(0.000000,200.000000) scale(0.100000,-0.100000)"
fill="#000000" stroke="none">
<path d="M392 1983 c-7 -3 -19 -18 -27 -33 -13 -24 -15 -99 -15 -460 l0 -430
-70 0 c-77 0 -118 -15 -144 -52 -24 -33 -24 -614 0 -659 20 -40 68 -59 149
-59 l65 0 0 -96 c0 -132 20 -170 98 -187 30 -7 28 9 -4 29 -42 28 -54 64 -54
162 0 55 -4 92 -12 100 -18 18 3 34 38 30 20 -2 28 -7 24 -18 -2 -8 -6 -56 -8
-106 -5 -146 -58 -134 588 -134 645 0 590 -13 590 135 0 53 -4 97 -10 100 -19
12 1 25 37 25 32 0 35 -2 27 -23 -4 -12 -9 -73 -11 -136 -3 -78 -9 -121 -19
-135 -20 -29 -17 -38 9 -31 41 13 47 32 47 162 l0 123 45 0 c62 0 110 22 129
59 24 45 24 626 0 659 -23 33 -67 52 -124 52 l-50 0 0 304 0 304 -182 161
-183 161 -460 -1 c-253 0 -466 -3 -473 -6z m1040 -139 c73 -64 152 -135 176
-157 l42 -41 0 -273 c0 -215 3 -281 14 -308 14 -32 13 -35 -5 -40 -36 -12 -77
13 -49 30 6 4 10 89 10 221 0 215 0 215 -25 239 -23 24 -29 25 -163 25 -126 0
-142 2 -166 21 -26 20 -26 22 -26 155 0 140 -10 184 -45 198 -9 3 -176 6 -370
6 -343 0 -355 -1 -373 -20 -18 -19 -20 -47 -26 -388 -7 -349 -5 -425 15 -464
7 -12 4 -18 -11 -23 -37 -12 -78 13 -50 30 6 4 10 157 10 426 0 418 2 450 34
471 6 4 205 8 443 8 l432 0 133 -116z m-232 -120 l0 -156 34 -34 34 -34 156 0
156 0 0 -220 0 -220 -557 0 -558 0 0 410 0 410 368 0 367 0 0 -156z m598 -756
c17 -17 17 -569 0 -586 -17 -17 -1579 -17 -1596 0 -17 17 -17 569 0 586 17 17
1579 17 1596 0z m-218 -767 l0 -88 -556 1 -555 1 -2 88 -2 87 558 0 557 0 0
-89z"/>
<path d="M497 863 c-4 -3 -7 -91 -7 -195 l0 -188 45 0 45 0 0 70 0 70 40 0
c87 0 150 51 150 122 0 92 -51 128 -182 128 -47 0 -88 -3 -91 -7z m173 -73
c41 -41 14 -96 -50 -102 l-40 -4 0 63 0 63 35 0 c22 0 43 -8 55 -20z m-106
-148 c-20 -31 -44 -3 -29 35 5 15 7 15 23 0 13 -14 14 -21 6 -35z"/>
<path d="M830 675 l0 -195 45 0 45 0 0 80 0 80 76 0 77 0 -5 -80 -5 -80 46 0
46 0 -3 195 -3 195 -43 0 -43 0 5 -75 5 -75 -77 0 -76 0 0 75 0 75 -45 0 -45
0 0 -195z m74 23 c14 -20 14 -24 -1 -40 -25 -27 -33 -22 -33 22 0 45 11 51 34
18z m206 -20 l0 -42 -22 21 c-21 22 -21 23 -3 43 10 11 20 20 22 20 1 0 3 -19
3 -42z"/>
<path d="M1228 675 l-3 -195 45 0 46 0 -4 70 -4 70 46 0 c90 0 151 52 151 129
0 85 -57 121 -189 121 l-85 0 -3 -195z m170 119 c27 -19 29 -64 5 -86 -10 -9
-33 -18 -50 -20 l-33 -5 0 64 c0 62 0 63 28 63 15 0 38 -7 50 -16z m-95 -150
c-2 -7 -11 -15 -19 -18 -11 -4 -14 4 -14 37 l0 42 19 -24 c10 -14 17 -30 14
-37z"/>
</g>
</svg>
