<?xml version="1.0" standalone="no"?>
<!DOCTYPE svg PUBLIC "-//W3C//DTD SVG 20010904//EN"
 "http://www.w3.org/TR/2001/REC-SVG-20010904/DTD/svg10.dtd">
<svg version="1.0" xmlns="http://www.w3.org/2000/svg"
 width="100.000000pt" height="100.000000pt" viewBox="0 0 200.000000 200.000000"
 preserveAspectRatio="xMidYMid meet">
<metadata>
Created by potrace 1.10, written by Peter Selinger 2001-2011
</metadata>
<g transform="translate(0.000000,200.000000) scale(0.100000,-0.100000)"
fill="#000000" stroke="none">
<path d="M850 1868 c-28 -10 -40 -41 -40 -101 0 -51 -2 -55 -26 -61 -21 -6
-34 1 -70 34 -24 22 -54 40 -66 40 -34 0 -238 -206 -238 -240 0 -15 16 -40 41
-66 40 -41 41 -44 29 -74 -12 -30 -14 -30 -73 -29 -87 3 -97 -12 -97 -145 l0
-101 189 0 189 0 5 39 c6 46 49 102 97 127 25 14 57 19 120 20 75 1 80 2 46
10 -142 34 -191 206 -87 310 136 136 361 4 311 -182 -16 -58 -75 -114 -132
-127 -40 -9 -37 -10 40 -11 114 -1 165 -28 206 -108 9 -18 16 -42 16 -55 l0
-23 190 0 190 0 0 101 c0 132 -9 145 -100 148 -60 1 -64 2 -73 29 -8 26 -5 33
32 71 26 26 41 51 41 67 0 33 -205 239 -238 239 -12 0 -42 -18 -66 -40 -36
-33 -49 -40 -70 -34 -24 6 -26 10 -26 64 0 96 -7 101 -178 103 -79 1 -152 -1
-162 -5z m290 -57 c5 -11 10 -38 10 -59 0 -33 6 -45 31 -66 41 -35 68 -33 116
9 23 19 50 35 60 35 11 0 57 -39 107 -89 l87 -90 -15 -29 c-8 -15 -22 -35 -31
-42 -29 -24 -37 -58 -21 -89 22 -42 44 -55 100 -61 l51 -5 3 -77 3 -78 -144 0
-145 0 -13 32 c-19 45 -75 106 -121 129 -21 11 -38 22 -38 25 0 2 10 24 22 47
83 163 -74 360 -253 317 -137 -33 -213 -194 -151 -317 12 -23 22 -45 22 -47 0
-3 -17 -14 -38 -25 -46 -23 -102 -84 -121 -129 l-13 -32 -143 0 c-160 0 -155
-3 -155 76 0 67 13 84 63 84 50 0 84 21 102 64 15 35 10 49 -37 106 -15 19
-28 39 -28 44 0 18 174 186 193 186 10 0 37 -16 60 -35 50 -43 79 -44 118 -6
23 24 29 38 29 73 0 24 5 49 12 56 8 8 54 12 140 12 116 0 128 -2 138 -19z" fill = "#FFFFFF" />
<path d="M777 1061 c-25 -5 -37 -22 -91 -128 l-63 -123 31 0 c30 0 34 5 94
126 35 70 62 127 60 128 -2 1 -16 0 -31 -3z" fill = "#FFFFFF"/>
<path d="M146 1044 c-9 -8 -16 -21 -16 -27 0 -7 -1 -56 -3 -109 l-3 -98 218 0
217 0 64 125 64 125 -263 0 c-225 0 -265 -2 -278 -16z m214 -37 c0 -21 -12
-28 -27 -16 -19 16 -16 29 7 29 11 0 20 -6 20 -13z m250 3 c0 -25 -71 -150
-86 -150 -9 0 -14 3 -12 8 2 4 10 20 18 35 14 28 13 32 -15 100 -6 15 -1 17
44 17 28 0 51 -5 51 -10z m-318 -27 c18 -16 24 -59 10 -79 -16 -24 -51 -35
-74 -23 -29 15 -38 28 -38 58 0 53 62 80 102 44z m188 -3 c28 -28 25 -64 -7
-89 -58 -46 -128 24 -82 82 25 32 61 35 89 7z" fill = "#FFFFFF"/>
<path d="M815 943 c-33 -65 -61 -121 -63 -125 -2 -5 250 -8 560 -8 l564 0 -3
98 c-2 53 -3 102 -3 109 0 6 -7 19 -16 27 -14 14 -73 16 -497 16 l-482 0 -60
-117z m999 71 c23 -9 23 -149 0 -158 -9 -3 -231 -6 -495 -6 -389 0 -481 2
-485 13 -6 17 9 58 42 115 l25 42 449 0 c246 0 455 -3 464 -6z" fill = "#FFFFFF"/>
<path d="M127 453 c2 -225 6 -300 16 -310 18 -19 1695 -19 1713 -1 10 10 14
88 16 311 l3 297 -875 0 -875 0 2 -297z m1698 -13 l0 -265 -825 0 -825 0 -3
255 c-1 140 0 260 3 267 3 11 168 13 827 11 l823 -3 0 -265z" fill = "#FFFFFF"/>
<path d="M689 610 c-147 -117 -177 -159 -148 -211 14 -28 198 -178 226 -185
14 -4 32 1 49 15 26 21 26 21 51 1 14 -11 31 -20 39 -20 29 0 74 56 153 189
45 78 87 144 92 147 10 6 129 -92 129 -106 0 -5 -29 -38 -65 -72 -38 -37 -65
-72 -65 -84 0 -31 54 -78 82 -71 28 7 223 168 232 192 19 50 -7 85 -152 204
-66 53 -108 65 -132 36 -7 -8 -18 -15 -25 -15 -7 0 -18 7 -25 15 -16 19 -50
19 -76 0 -12 -8 -63 -84 -114 -170 -51 -85 -94 -155 -97 -155 -11 0 -123 106
-123 117 0 6 24 32 54 58 30 25 59 59 66 76 11 27 10 34 -7 57 -34 46 -70 41
-144 -18z m105 14 c36 -14 16 -49 -68 -118 l-84 -68 84 -70 c65 -54 84 -75 82
-91 -2 -12 -11 -23 -20 -25 -19 -4 -228 166 -228 185 0 9 206 192 217 193 1 0
8 -3 17 -6z m320 -10 c9 -8 16 -17 16 -19 0 -14 -198 -330 -212 -339 -14 -8
-21 -7 -34 6 -15 15 -9 28 81 180 127 212 119 202 149 172z m219 -74 c59 -50
107 -96 107 -103 0 -19 -209 -189 -228 -185 -9 2 -18 13 -20 25 -2 16 17 37
82 91 l84 70 -84 68 c-92 76 -110 116 -54 123 3 0 53 -40 113 -89z" fill = "#FFFFFF"/>
</g>
</svg>
