<?xml version="1.0" encoding="UTF-8"?> <svg xmlns="http://www.w3.org/2000/svg" viewBox="0 0 780 440"><title>twitter dashboard</title><g id="Artwork"><rect width="780" height="440" fill="#c7f9f8"></rect><polyline points="193.4 126 229.69 91.25 309.04 162.4 332.28 66.57" fill="none" stroke="#002138" stroke-linecap="round" stroke-linejoin="round" stroke-width="1.25"></polyline><ellipse cx="193.11" cy="123.45" rx="8.25" ry="8.43" transform="translate(36.43 290.73) rotate(-79.46)" fill="#1da1f2" stroke="#162020" stroke-linecap="round" stroke-miterlimit="10" stroke-width="1.25"></ellipse><ellipse cx="231.43" cy="92.33" rx="8.25" ry="8.43" transform="translate(98.33 302.98) rotate(-79.46)" fill="#1da1f2" stroke="#162020" stroke-linecap="round" stroke-miterlimit="10" stroke-width="1.25"></ellipse><ellipse cx="331.28" cy="68.57" rx="8.25" ry="8.43" transform="translate(203.28 381.73) rotate(-79.46)" fill="#1da1f2" stroke="#162020" stroke-linecap="round" stroke-miterlimit="10" stroke-width="1.25"></ellipse><ellipse cx="306.95" cy="157.59" rx="8.25" ry="8.43" transform="translate(95.89 430.55) rotate(-79.46)" fill="#1da1f2" stroke="#162020" stroke-linecap="round" stroke-miterlimit="10" stroke-width="1.25"></ellipse><polyline points="151.43 63.24 151.43 197.52 391.47 197.52" fill="none" stroke="#002138" stroke-linecap="round" stroke-linejoin="round" stroke-width="1.25"></polyline><line x1="177.07" y1="189.28" x2="177.07" y2="197.61" fill="none" stroke="#002138" stroke-linecap="round" stroke-linejoin="round" stroke-width="1.25"></line><line x1="239.5" y1="189.28" x2="239.5" y2="197.61" fill="none" stroke="#002138" stroke-linecap="round" stroke-linejoin="round" stroke-width="1.25"></line><line x1="270.08" y1="189.28" x2="270.08" y2="197.61" fill="none" stroke="#002138" stroke-linecap="round" stroke-linejoin="round" stroke-width="1.25"></line><polyline points="270.14 197.7 270.14 203.98 270.14 308.16" fill="none" stroke="#002138" stroke-linecap="round" stroke-linejoin="round" stroke-width="1.25"></polyline><line x1="208.31" y1="189.28" x2="208.31" y2="197.61" fill="none" stroke="#002138" stroke-linecap="round" stroke-linejoin="round" stroke-width="1.25"></line><line x1="333.27" y1="189.28" x2="333.27" y2="197.61" fill="none" stroke="#002138" stroke-linecap="round" stroke-linejoin="round" stroke-width="1.25"></line><line x1="302.08" y1="189.28" x2="302.08" y2="197.61" fill="none" stroke="#002138" stroke-linecap="round" stroke-linejoin="round" stroke-width="1.25"></line><line x1="364.53" y1="189.28" x2="364.53" y2="197.61" fill="none" stroke="#002138" stroke-linecap="round" stroke-linejoin="round" stroke-width="1.25"></line><line x1="160.21" y1="173.65" x2="152.03" y2="173.65" fill="none" stroke="#002138" stroke-linecap="round" stroke-linejoin="round" stroke-width="1.25"></line><line x1="160.21" y1="148.04" x2="152.03" y2="148.04" fill="none" stroke="#002138" stroke-linecap="round" stroke-linejoin="round" stroke-width="1.25"></line><line x1="160.21" y1="122.43" x2="152.03" y2="122.43" fill="none" stroke="#002138" stroke-linecap="round" stroke-linejoin="round" stroke-width="1.25"></line><line x1="160.21" y1="96.56" x2="152.03" y2="96.56" fill="none" stroke="#002138" stroke-linecap="round" stroke-linejoin="round" stroke-width="1.25"></line><line x1="411.81" y1="207.83" x2="411.81" y2="320.47" fill="none" stroke="#002138" stroke-linecap="round" stroke-linejoin="round" stroke-width="1.25"></line><line x1="420.62" y1="296.31" x2="412.41" y2="296.31" fill="none" stroke="#002138" stroke-linecap="round" stroke-linejoin="round" stroke-width="1.25"></line><line x1="420.62" y1="270.65" x2="412.41" y2="270.65" fill="none" stroke="#002138" stroke-linecap="round" stroke-linejoin="round" stroke-width="1.25"></line><line x1="420.62" y1="244.74" x2="412.41" y2="244.74" fill="none" stroke="#002138" stroke-linecap="round" stroke-linejoin="round" stroke-width="1.25"></line><polyline points="203.59 164 247.94 146.71 283.73 107.24 348.36 119.01" fill="none" stroke="#162020" stroke-linecap="round" stroke-miterlimit="10" stroke-width="1.25"></polyline><ellipse cx="201.59" cy="165" rx="8.25" ry="8.43" transform="matrix(0.18, -0.98, 0.98, 0.18, 2.51, 333.02)" fill="#fff" stroke="#162020" stroke-linecap="round" stroke-miterlimit="10" stroke-width="1.25"></ellipse><ellipse cx="247.45" cy="146.97" rx="8.25" ry="8.43" transform="translate(57.71 363.37) rotate(-79.46)" fill="#fff" stroke="#162020" stroke-linecap="round" stroke-miterlimit="10" stroke-width="1.25"></ellipse><ellipse cx="285" cy="108.31" rx="8.25" ry="8.43" transform="translate(126.4 368.7) rotate(-79.46)" fill="#fff" stroke="#162020" stroke-linecap="round" stroke-miterlimit="10" stroke-width="1.25"></ellipse><ellipse cx="343.27" cy="119.18" rx="8.25" ry="8.43" transform="translate(163.33 434.86) rotate(-79.46)" fill="#fff" stroke="#162020" stroke-linecap="round" stroke-miterlimit="10" stroke-width="1.25"></ellipse><line x1="628.57" y1="320.49" x2="290.71" y2="320.49" fill="none" stroke="#162020" stroke-linecap="round" stroke-miterlimit="10" stroke-width="1.25"></line><rect x="489.42" y="252.3" width="28.49" height="68.14" fill="#fff" stroke="#162020" stroke-linecap="round" stroke-miterlimit="10" stroke-width="1.25"></rect><rect x="527.77" y="269.42" width="28.49" height="51.02" fill="#fff" stroke="#162020" stroke-linecap="round" stroke-miterlimit="10" stroke-width="1.25"></rect><rect x="566.16" y="223.86" width="28.49" height="96.58" fill="#fff" stroke="#162020" stroke-linecap="round" stroke-miterlimit="10" stroke-width="1.25"></rect><rect x="450.62" y="293.19" width="28.49" height="27.24" fill="#fff" stroke="#162020" stroke-linecap="round" stroke-miterlimit="10" stroke-width="1.25"></rect><rect x="527.82" y="320.58" width="28.49" height="35.67" stroke-width="1.25" fill="#1da1f2" stroke="#162020" stroke-linecap="round" stroke-miterlimit="10" transform="translate(1084.13 676.84) rotate(180)"></rect><rect x="489.47" y="320.58" width="28.49" height="59.1" stroke-width="1.25" fill="#1da1f2" stroke="#162020" stroke-linecap="round" stroke-miterlimit="10" transform="translate(1007.44 700.27) rotate(180)"></rect><rect x="450.62" y="320.58" width="28.49" height="19.79" stroke-width="1.25" fill="#1da1f2" stroke="#162020" stroke-linecap="round" stroke-miterlimit="10" transform="translate(929.74 660.95) rotate(180)"></rect><rect x="566.16" y="320.58" width="28.49" height="54.45" stroke-width="1.25" fill="#1da1f2" stroke="#162020" stroke-linecap="round" stroke-miterlimit="10" transform="translate(1160.82 695.61) rotate(180)"></rect><path d="M380.93,248.72a65.08,65.08,0,0,1-19,5.12,33.58,33.58,0,0,0,14.65-18.43,65.15,65.15,0,0,1-21,8,32.66,32.66,0,0,0-24-10.8c-18.21-.16-33.1,14.72-33.27,33.25a33.9,33.9,0,0,0,.79,7.65,93.09,93.09,0,0,1-67.64-35.65,33.95,33.95,0,0,0,9.8,44.87,32.39,32.39,0,0,1-14.89-4.33c0,.14,0,.28,0,.43a33.43,33.43,0,0,0,26.16,33.12,32.89,32.89,0,0,1-8.7,1.1,32.24,32.24,0,0,1-6.19-.66,33.05,33.05,0,0,0,30.58,23.56,65.61,65.61,0,0,1-48.93,13.46,92.09,92.09,0,0,0,50.4,15.52c60.64.54,94.26-50.27,94.65-94.6,0-1.45,0-2.9-.06-4.34A67.47,67.47,0,0,0,380.93,248.72Z" fill="#1da1f2" stroke="#182020" stroke-linecap="round" stroke-miterlimit="10" stroke-width="1.25"></path><path d="M482.6,204.59a55.19,55.19,0,0,0,10.51-12.46,59.6,59.6,0,0,0,9.14-25.76c.16-1.46.27-2.27.32-3.76l-27.79-.67a34.66,34.66,0,0,1-.45,3.58,31.87,31.87,0,0,1-2,6.75,29.61,29.61,0,0,1-8.49,11.86Z" fill="#fff" stroke="#162020" stroke-linecap="round" stroke-miterlimit="10" stroke-width="1.25"></path><path d="M404.35,209.56c9.9,7.06,24.69,11.24,37,11.24,12.53,0,26.93-5.15,37.21-13.2l-18.83-21.16a32.3,32.3,0,0,1-19.28,6.36,35.87,35.87,0,0,1-18.93-5.38Z" fill="#1da1f2" stroke="#162020" stroke-linecap="round" stroke-miterlimit="10" stroke-width="1.25"></path><path d="M409.78,174.93A32.58,32.58,0,0,1,405,157.87c0-16.32,12.87-29.84,28.48-32.35a30.92,30.92,0,0,1,4.23-.41V96.9c-1.31,0-3.3.08-4.59.17a61,61,0,0,0-32.66,109L418,184A32.92,32.92,0,0,1,409.78,174.93Z" fill="#fff" stroke="#162020" stroke-linecap="round" stroke-miterlimit="10" stroke-width="1.25"></path><path d="M502.15,157.48c0-32.8-26.23-60.15-58.86-60.15-.35,0-.22,27.76-.22,27.76s-.2.08.23.08c15,0,31,14.89,31,32.31C474.32,157.48,502.15,157.77,502.15,157.48Z" fill="#1da1f2" stroke="#162020" stroke-linecap="round" stroke-miterlimit="10" stroke-width="1.25"></path></g></svg> 